<mxfile host="app.diagrams.net" agent="Mozilla/5.0 (Windows NT 10.0; Win64; x64) AppleWebKit/537.36 (KHTML, like Gecko) Chrome/128.0.0.0 Safari/537.36 OPR/114.0.0.0 (Edition Yx GX)" version="24.7.17">
  <diagram name="Страница — 1" id="fLW119jhsDXN4s67T2l9">
    <mxGraphModel dx="1009" dy="573" grid="1" gridSize="10" guides="1" tooltips="1" connect="1" arrows="1" fold="1" page="1" pageScale="1" pageWidth="827" pageHeight="1169" math="0" shadow="0">
      <root>
        <mxCell id="0" />
        <mxCell id="1" parent="0" />
        <mxCell id="Gs5_JI_i6F8kZX9KeWva-3" value="" style="whiteSpace=wrap;html=1;aspect=fixed;" parent="1" vertex="1">
          <mxGeometry x="150" y="66" width="494" height="494" as="geometry" />
        </mxCell>
        <mxCell id="Gs5_JI_i6F8kZX9KeWva-4" value="Пользователь" style="shape=umlActor;verticalLabelPosition=bottom;verticalAlign=top;html=1;outlineConnect=0;" parent="1" vertex="1">
          <mxGeometry x="60" y="260" width="30" height="60" as="geometry" />
        </mxCell>
        <mxCell id="Gs5_JI_i6F8kZX9KeWva-5" value="Администратор" style="shape=umlActor;verticalLabelPosition=bottom;verticalAlign=top;html=1;outlineConnect=0;" parent="1" vertex="1">
          <mxGeometry x="690" y="260" width="30" height="60" as="geometry" />
        </mxCell>
        <mxCell id="Gs5_JI_i6F8kZX9KeWva-6" value="Регистрация\Вход" style="ellipse;whiteSpace=wrap;html=1;" parent="1" vertex="1">
          <mxGeometry x="220" y="78" width="140" height="70" as="geometry" />
        </mxCell>
        <mxCell id="Gs5_JI_i6F8kZX9KeWva-7" value="Настройка профиля" style="ellipse;whiteSpace=wrap;html=1;" parent="1" vertex="1">
          <mxGeometry x="220" y="158" width="140" height="70" as="geometry" />
        </mxCell>
        <mxCell id="Gs5_JI_i6F8kZX9KeWva-8" value="Планирование рациона" style="ellipse;whiteSpace=wrap;html=1;" parent="1" vertex="1">
          <mxGeometry x="220" y="238" width="140" height="70" as="geometry" />
        </mxCell>
        <mxCell id="Gs5_JI_i6F8kZX9KeWva-9" value="Добавление продукта&lt;div&gt;в дневной рацион&lt;/div&gt;" style="ellipse;whiteSpace=wrap;html=1;" parent="1" vertex="1">
          <mxGeometry x="220" y="318" width="140" height="70" as="geometry" />
        </mxCell>
        <mxCell id="Gs5_JI_i6F8kZX9KeWva-10" value="Просмотр статистики питания" style="ellipse;whiteSpace=wrap;html=1;" parent="1" vertex="1">
          <mxGeometry x="220" y="398" width="140" height="70" as="geometry" />
        </mxCell>
        <mxCell id="Gs5_JI_i6F8kZX9KeWva-11" value="Управление рецептами" style="ellipse;whiteSpace=wrap;html=1;" parent="1" vertex="1">
          <mxGeometry x="223" y="478" width="140" height="70" as="geometry" />
        </mxCell>
        <mxCell id="Gs5_JI_i6F8kZX9KeWva-12" value="Управление БД рецептов" style="ellipse;whiteSpace=wrap;html=1;" parent="1" vertex="1">
          <mxGeometry x="440" y="238" width="140" height="70" as="geometry" />
        </mxCell>
        <mxCell id="Gs5_JI_i6F8kZX9KeWva-13" value="Модерация пользовательских отзывов\рецептов" style="ellipse;whiteSpace=wrap;html=1;" parent="1" vertex="1">
          <mxGeometry x="440" y="318" width="140" height="70" as="geometry" />
        </mxCell>
        <mxCell id="Gs5_JI_i6F8kZX9KeWva-15" value="" style="endArrow=none;html=1;rounded=0;exitX=1;exitY=0.3333333333333333;exitDx=0;exitDy=0;exitPerimeter=0;entryX=0;entryY=0.5;entryDx=0;entryDy=0;" parent="1" source="Gs5_JI_i6F8kZX9KeWva-4" target="Gs5_JI_i6F8kZX9KeWva-6" edge="1">
          <mxGeometry width="50" height="50" relative="1" as="geometry">
            <mxPoint x="360" y="340" as="sourcePoint" />
            <mxPoint x="410" y="290" as="targetPoint" />
          </mxGeometry>
        </mxCell>
        <mxCell id="Gs5_JI_i6F8kZX9KeWva-16" value="" style="endArrow=none;html=1;rounded=0;exitX=1;exitY=0.3333333333333333;exitDx=0;exitDy=0;exitPerimeter=0;entryX=0;entryY=0.5;entryDx=0;entryDy=0;" parent="1" source="Gs5_JI_i6F8kZX9KeWva-4" target="Gs5_JI_i6F8kZX9KeWva-7" edge="1">
          <mxGeometry width="50" height="50" relative="1" as="geometry">
            <mxPoint x="360" y="340" as="sourcePoint" />
            <mxPoint x="410" y="290" as="targetPoint" />
          </mxGeometry>
        </mxCell>
        <mxCell id="Gs5_JI_i6F8kZX9KeWva-17" value="" style="endArrow=none;html=1;rounded=0;entryX=0;entryY=0.5;entryDx=0;entryDy=0;" parent="1" target="Gs5_JI_i6F8kZX9KeWva-8" edge="1">
          <mxGeometry width="50" height="50" relative="1" as="geometry">
            <mxPoint x="90" y="280" as="sourcePoint" />
            <mxPoint x="410" y="290" as="targetPoint" />
          </mxGeometry>
        </mxCell>
        <mxCell id="Gs5_JI_i6F8kZX9KeWva-18" value="" style="endArrow=none;html=1;rounded=0;exitX=1;exitY=0.3333333333333333;exitDx=0;exitDy=0;exitPerimeter=0;entryX=0;entryY=0.5;entryDx=0;entryDy=0;" parent="1" source="Gs5_JI_i6F8kZX9KeWva-4" target="Gs5_JI_i6F8kZX9KeWva-9" edge="1">
          <mxGeometry width="50" height="50" relative="1" as="geometry">
            <mxPoint x="360" y="340" as="sourcePoint" />
            <mxPoint x="410" y="290" as="targetPoint" />
          </mxGeometry>
        </mxCell>
        <mxCell id="Gs5_JI_i6F8kZX9KeWva-19" value="" style="endArrow=none;html=1;rounded=0;exitX=0;exitY=0.5;exitDx=0;exitDy=0;entryX=1;entryY=0.3333333333333333;entryDx=0;entryDy=0;entryPerimeter=0;" parent="1" source="Gs5_JI_i6F8kZX9KeWva-10" target="Gs5_JI_i6F8kZX9KeWva-4" edge="1">
          <mxGeometry width="50" height="50" relative="1" as="geometry">
            <mxPoint x="360" y="340" as="sourcePoint" />
            <mxPoint x="410" y="290" as="targetPoint" />
          </mxGeometry>
        </mxCell>
        <mxCell id="Gs5_JI_i6F8kZX9KeWva-20" value="" style="endArrow=none;html=1;rounded=0;exitX=0;exitY=0.5;exitDx=0;exitDy=0;entryX=1;entryY=0.3333333333333333;entryDx=0;entryDy=0;entryPerimeter=0;" parent="1" source="Gs5_JI_i6F8kZX9KeWva-11" target="Gs5_JI_i6F8kZX9KeWva-4" edge="1">
          <mxGeometry width="50" height="50" relative="1" as="geometry">
            <mxPoint x="360" y="340" as="sourcePoint" />
            <mxPoint x="410" y="290" as="targetPoint" />
          </mxGeometry>
        </mxCell>
        <mxCell id="Gs5_JI_i6F8kZX9KeWva-21" value="" style="endArrow=none;html=1;rounded=0;entryX=0;entryY=0.3333333333333333;entryDx=0;entryDy=0;entryPerimeter=0;exitX=1;exitY=0.5;exitDx=0;exitDy=0;" parent="1" source="Gs5_JI_i6F8kZX9KeWva-13" target="Gs5_JI_i6F8kZX9KeWva-5" edge="1">
          <mxGeometry width="50" height="50" relative="1" as="geometry">
            <mxPoint x="360" y="340" as="sourcePoint" />
            <mxPoint x="410" y="290" as="targetPoint" />
          </mxGeometry>
        </mxCell>
        <mxCell id="Gs5_JI_i6F8kZX9KeWva-22" value="" style="endArrow=none;html=1;rounded=0;entryX=0;entryY=0.3333333333333333;entryDx=0;entryDy=0;entryPerimeter=0;exitX=1;exitY=0.5;exitDx=0;exitDy=0;" parent="1" source="Gs5_JI_i6F8kZX9KeWva-12" target="Gs5_JI_i6F8kZX9KeWva-5" edge="1">
          <mxGeometry width="50" height="50" relative="1" as="geometry">
            <mxPoint x="360" y="340" as="sourcePoint" />
            <mxPoint x="410" y="290" as="targetPoint" />
          </mxGeometry>
        </mxCell>
        <mxCell id="9uRi5G7pgDsWoCiHhVfn-1" value="Система" style="text;html=1;align=center;verticalAlign=middle;whiteSpace=wrap;rounded=0;" vertex="1" parent="1">
          <mxGeometry x="370" y="66" width="60" height="30" as="geometry" />
        </mxCell>
      </root>
    </mxGraphModel>
  </diagram>
</mxfile>
